<?xml version="1.0" encoding="UTF-8" standalone="no"?>
<svg
   xmlns:dc="http://purl.org/dc/elements/1.1/"
   xmlns:cc="http://creativecommons.org/ns#"
   xmlns:rdf="http://www.w3.org/1999/02/22-rdf-syntax-ns#"
   xmlns:svg="http://www.w3.org/2000/svg"
   xmlns="http://www.w3.org/2000/svg"
   xmlns:sodipodi="http://sodipodi.sourceforge.net/DTD/sodipodi-0.dtd"
   xmlns:inkscape="http://www.inkscape.org/namespaces/inkscape"
   version="1.1"
   id="svg10"
   width="419.87878"
   height="559.51514"
   viewBox="0 0 419.87878 559.51514"
   sodipodi:docname="RZ_KSW_Logo_gelb-removebg-preview.svg"
   inkscape:version="1.0.2 (e86c870879, 2021-01-15, custom)">
  <metadata
     id="metadata16">
    <rdf:RDF>
      <cc:Work
         rdf:about="">
        <dc:format>image/svg+xml</dc:format>
        <dc:type
           rdf:resource="http://purl.org/dc/dcmitype/StillImage" />
        <dc:title></dc:title>
      </cc:Work>
    </rdf:RDF>
  </metadata>
  <defs
     id="defs14" />
  <sodipodi:namedview
     pagecolor="#ffffff"
     bordercolor="#666666"
     borderopacity="1"
     objecttolerance="10"
     gridtolerance="10"
     guidetolerance="10"
     inkscape:pageopacity="0"
     inkscape:pageshadow="2"
     inkscape:window-width="2560"
     inkscape:window-height="1377"
     id="namedview12"
     showgrid="false"
     inkscape:zoom="1.2738952"
     inkscape:cx="-242.72118"
     inkscape:cy="444.02308"
     inkscape:window-x="-8"
     inkscape:window-y="-8"
     inkscape:window-maximized="1"
     inkscape:current-layer="g18" />
  <g
     inkscape:groupmode="layer"
     inkscape:label="Image"
     id="g18">
    <path
       style="fill:#f7ea0e;stroke:none;stroke-width:0.969697"
       d="m 226.07672,2.8983991 c -19.18352,0.79433 -17.11903,31.3514899 1.93939,31.1051799 20.39951,-0.26366 19.15345,-31.9785899 -1.93939,-31.1051799 m -40.72631,0.78344 c -17.23248,4.21023 -9.03369,33.9907799 8.72631,29.9992199 20.32969,-4.56921 12.4286,-35.1678999 -8.72631,-29.9992199 m 67.87782,2.39205 -5.81818,30.0605999 21.33333,3.87879 c 0.98618,-8.57697 -4.20363,-8.75268 -11.63636,-9.69697 l 4.84848,-22.3030299 -8.72727,-1.93939 m -89.21212,24.2424199 -18.42424,0.9697 c 3.56654,8.98812 16.96873,10.70002 23.60921,3.36174 3.50158,-3.8688 3.44921,-11.10982 -1.41188,-13.85483 -4.17454,-2.35763 -10.72388,-1.92834 -15.40945,-3.08267 3.75272,-4.35122 10.07224,-2.22546 15.51515,-2.90909 -4.28315,-12.4502899 -28.30739,-6.7584999 -22.55321,6.68237 2.91588,6.80951 14.01988,3.24422 18.67442,8.83278 M 190.25029,9.6249191 c 8.49164,-0.88931 10.27879,17.0843099 0.928,17.0677299 -8.01357,-0.0142 -9.06279,-16.21566 -0.928,-17.0677299 m 36.81067,0.0868 c 8.40436,-1.86279 8.85527,14.5999499 1.824,16.7235799 -9.06958,2.73901 -10.21479,-14.8639 -1.824,-16.7235799 m 71.74303,7.9985399 -5.81818,31.0303 c 11.09527,4.90192 12.28024,-4.14739 19.39393,-10.66666 -0.82327,2.57406 -1.61745,5.14182 -2.29915,7.75757 -1.10351,4.23525 -1.79975,16.12403 6.6977,11.56752 6.63661,-3.55821 15.14182,-15.77804 18.87418,-22.23418 -10.99927,-5.71772 -11.84291,4.43006 -19.39394,10.66666 0.83491,-3.60989 8.13479,-23.63617 -2.82182,-19.18739 -4.8863,1.98351 -7.64606,9.08005 -11.72363,12.39951 l 4.84848,-17.45454 -7.75757,-3.87879 m -183.27273,1.9394 c -7.40654,4.07282 -9.96557,7.90652 -10.66666,16.48484 l -4.84849,-7.75757 -8.727265,2.90909 12.606055,27.15151 c 10.47467,-2.52703 4.37818,-7.78298 5.81818,-15.51515 7.67903,6.07302 12.20461,7.59787 21.33333,3.87879 v -1.93939 c -4.3743,-2.29382 -16.36848,-6.39535 -17.34012,-11.73809 -0.8223,-4.51888 2.87419,-8.87971 1.82497,-13.47403 m -47.515145,28.12121 -7.75757,2.90909 c 0.81648,4.10492 3.02341,7.16296 5.24877,10.66666 2.12005,3.33789 4.06342,7.45785 7.45833,9.68805 6.81212,4.47496 18.20528,-0.20014 20.59927,-7.75234 2.24931,-7.09575 -3.89934,-20.79912 -10.32543,-24.48339 -2.80766,-1.6097 -6.78739,1.01634 -6.66298,4.21101 0.24068,6.17619 8.06623,10.29546 8.7617,16.3584 1.219,10.62574 -10.93314,-1.40335 -12.58357,-3.83991 -1.70182,-2.51229 -3.26846,-5.1072 -4.73852,-7.75757 m 274.424235,-2.39205 c -19.55879,4.57008 -13.69988,34.48737 6.78788,30.04489 18.752,-4.06613 12.89212,-34.64329 -6.78788,-30.04489 m 4.84752,7.07364 c 10.09648,0.45693 4.47127,16.8259 -3.79055,16.0098 -9.73867,-0.96214 -3.77988,-16.35239 3.79055,-16.0098 m -296.726295,5.01537 c -6.90861,6.99113 -5.82429,11.18604 -5.81819,20.36364 h -0.96969 c -2.9217,-5.16703 -14.5697,-7.6096 -11.46948,0.80504 1.80286,4.89358 11.91011,14.8992 16.40475,17.53096 3.05901,1.79103 7.24315,0.0824 7.37377,-3.79132 0.13692,-4.06284 -4.0095,-6.22449 -3.58177,-10.66589 8.49949,3.65682 14.64708,4.20257 20.36364,-3.87879 -4.94536,-0.66589 -18.55215,-1.87219 -20.74822,-6.93081 -1.81411,-4.17872 0.23001,-9.17944 -1.55481,-13.43283 m 307.393925,32.9697 12.60606,-10.66667 c -0.72145,4.91006 -2.70642,9.63229 -3.32703,14.54546 -0.39079,3.08945 1.28582,8.139641 5.2674,7.721701 3.22036,-0.33843 5.70957,-4.623521 7.79442,-6.714191 6.08388,-6.10143 16.80194,-12.10918 6.75006,-19.43175 l -10.66667,10.66666 c 0.68364,-5.07665 4.05915,-11.44252 3.27952,-16.48407 -0.42958,-2.77925 -3.00897,-6.28848 -6.19249,-5.48373 -9.12484,2.307 -21.12484,17.53454 -15.51127,25.84659 M 29.228235,238.80116 h 6.78788 c 3.45018,-18.58424 6.3296,-36.68848 13.80024,-54.30302 15.84669,-37.3634 44.8546,-66.02958 79.290665,-86.524121 13.26061,-7.89247 28.74279,-12.56815 43.63636,-16.13731 10.17115,-2.43763 18.78012,-1.41925 25.21212,-10.79312 C 112.28181,71.279619 30.984555,153.71123 29.228235,238.80116 M 226.07672,71.043589 c 4.52848,9.85203 14.95369,8.66686 24.24242,10.68083 15.40945,3.34118 30.90812,9.04533 44.60606,16.88475 49.59806,28.387881 89.59612,81.380841 92.12121,140.191991 h 6.78788 C 392.07914,153.76843 311.88132,71.753789 226.07672,71.043579 M 43.773695,238.80115 h 32.96969 c 1.41169,-32.87854 21.5745,-67.91854 46.559995,-88.61866 8.92994,-7.39879 18.69285,-14.05964 29.07637,-19.25139 5.01818,-2.50861 12.83103,-3.59855 16.95709,-7.34837 3.05745,-2.77818 4.01939,-8.9823 5.34594,-12.78157 2.87224,-8.22885 8.53818,-15.965091 10.66666,-24.242431 -15.49963,0.32 -32.67297,7.64606 -46.54545,14.085821 -51.199705,23.76921 -94.991705,79.79539 -95.030295,138.1566 M 237.71308,86.558729 c 2.5377,8.01843 7.53939,15.229091 10.33309,23.272731 1.4177,4.08242 2.41067,10.73164 5.72509,13.728 6.65018,6.01018 20.44509,9.04727 28.54788,13.70279 14.15564,8.13382 26.39515,20.33745 36.52945,33.00557 9.952,12.44121 17.76485,27.17382 22.59394,42.35152 2.02764,6.36994 1.82206,19.63539 5.86958,24.62739 1.84242,2.272 6.14012,1.55345 8.704,1.55442 h 24.24242 c -2.04024,-10.98957 -2.57357,-22.17018 -5.856,-32.96969 -13.77842,-45.3217 -44.9183,-82.84121 -87.23491,-103.99709 -14.47175,-7.234911 -33.06181,-15.139981 -49.45454,-15.275641 m -84.36364,151.272731 3.87879,-0.9697 3.87879,-13.57576 c 2.36121,18.60364 -1.37406,37.44194 -0.0873,56.24243 0.46933,6.848 -0.69915,14.15563 3.13891,20.32194 6.45721,10.37187 30.62109,9.77745 35.59272,-1.98497 2.77915,-6.57649 1.11322,-16.1697 1.11322,-23.18546 v -48.48485 l 3.87878,0.9697 5.81818,-10.66667 c 1.29843,24.81358 -8.0989,48.49358 -5.12484,73.69697 0.59054,5.01237 -1.11903,11.80703 1.55442,16.30158 6.1343,10.31563 34.60267,5.80557 38.7297,-4.67976 3.16994,-8.05527 1.68921,-22.3166 1.68921,-31.01576 0,-17.77939 1.70279,-35.5646 1.93939,-53.33333 h 0.9697 l 1.93939,8.72727 2.90909,-0.96969 c -2.41551,16.4286 -2.20994,32.96484 -4.15515,49.45454 -0.80194,6.79273 -3.78375,20.62643 -0.94254,26.94594 4.07854,9.07055 23.53745,6.41649 30.30885,2.7103 18.9023,-10.34763 7.40169,-45.57769 9.82496,-62.62593 1.52534,-10.73067 6.14304,-21.14328 6.62304,-32 0.37236,-8.43637 -0.55079,-17.16267 -7.82061,-22.77431 -8.02424,-6.19442 -17.68921,0.63903 -26.08,-2.32145 -9.00558,-3.17673 -14.272,-12.59249 -24.24339,-14.34279 -13.43612,-2.35927 -20.12897,9.47297 -32,11.65964 -7.46085,1.37309 -15.71976,-3.92921 -23.27273,-4.1794 -9.48073,-0.31418 -17.10255,6.12558 -26.18182,7.78667 -6.73745,1.23248 -13.85309,-1.65236 -20.36363,1.45455 -6.12655,2.92266 -10.49406,9.21309 -13.70958,14.95951 -3.17382,5.67176 -7.84291,12.78933 -8.37527,19.39394 -0.5343,6.61915 2.67733,13.16557 4.35006,19.39394 2.47854,9.23345 3.78085,18.816 5.98594,28.12121 2.34957,9.91127 5.93163,28.38109 17.568,31.57915 3.18836,0.87661 11.05066,1.57285 13.48751,-1.13358 3.09818,-3.44048 2.17406,-10.68315 1.98885,-14.93042 -0.54594,-12.46448 2.00436,-36.22012 -4.81067,-46.54545 m -33.93939,24.24242 -3.87879,-18.42424 H 32.137325 c -7.95384,0 -25.6852801,-2.90715 -25.0639701,9.69697 0.59137,11.99709 18.0337701,8.72727 26.0336701,8.72727 H 119.41005 M 293.9555,243.64964 v 18.42424 h 94.06061 c 8.35394,0 28.60994,3.61891 28.44121,-9.696 -0.15709,-12.38109 -20.59249,-8.72824 -28.44121,-8.72824 H 293.9555 M 29.228235,267.89206 c 0.46478,22.51831 8.28946,49.33624 19.39394,68.84849 8.70371,-4.49261 2.80301,-10.4194 0.0598,-17.45455 -6.5503,-16.79903 -9.40829,-33.84727 -12.66589,-51.39394 h -6.78788 m 14.54546,0 c 0.0145,21.82885 8.26792,41.35467 16.48485,61.09091 6.02094,-2.59782 25.44174,-11.82933 27.08266,-18.62788 0.93935,-3.89139 -2.86516,-8.82715 -4.05382,-12.40242 -3.18506,-9.58061 -6.10909,-19.93018 -6.544,-30.06061 h -32.96969 m 336.484835,0 h -24.24242 l -8.71467,1.55443 -8.09406,30.44557 -2.74424,10.54158 12.76509,10.36897 13.19757,6.48533 7.21746,-13.82012 10.61527,-45.57576 m 6.78788,0 c -0.68558,15.96703 -5.50788,32.61867 -11.07782,47.51515 -1.49139,3.9874 -8.25406,14.25164 -5.6126,18.11103 5.10739,7.46473 10.69672,-10.39127 11.84193,-13.26254 6.56097,-16.45285 10.87419,-34.62497 11.63637,-52.36364 h -6.78788 m -91.15151,0.9697 c -2.13431,9.71636 1.3663,18.51442 -3.29891,28.12121 -9.77746,20.13576 -27.23879,12.74376 -44.21624,13.43418 -5.76776,0.23467 -11.63055,4.31418 -17.45455,5.36243 -5.16654,0.92994 -11.46376,-0.61673 -16.31612,1.46424 -7.47152,3.20291 -10.03539,17.79103 -3.07782,22.40582 2.02279,-13.49528 24.1154,-29.43515 35.04679,-14.32437 4.20073,5.80655 -0.2017,13.98497 -1.1074,20.14255 8.39661,-0.0708 16.78255,-2.24485 25.21213,-2.82182 4.44993,-0.30545 9.4206,0.65649 13.57575,-1.36533 8.97261,-4.36655 17.74837,-17.61067 21.08412,-26.84315 3.48025,-9.632 -8.99781,-15.74497 1.21891,-25.21212 l -10.66666,-20.36364 m -190.28461,22.44267 c -7.436305,4.37333 -9.541815,17.73187 -16.299725,23.81187 -14.46536,13.01431 -38.16853,19.44146 -49.76737,35.21455 -4.20315,5.71539 -18.81309,35.03612 0.30982,29.62521 7.3505,-2.08 10.4223,-16.54982 15.73663,-21.93067 15.14143,-15.33187 41.24848,-21.41284 53.186705,-39.70909 3.29697,-5.05406 8.57116,-14.208 8.48679,-20.36266 -0.0776,-5.73091 -6.56194,-9.64364 -11.65285,-6.64921 m 206.7743,-0.53916 c -12.48291,3.2514 -0.65066,23.44922 3.63443,29.47588 13.56509,19.07879 42.7743,23.11855 56.26763,42.68121 4.47515,6.48825 6.70837,21.08509 17.65043,16.73503 10.51927,-4.1823 -1.04534,-23.15636 -5.28388,-28.91539 -14.0034,-19.02739 -41.62715,-23.80218 -56.09891,-43.09236 -4.21042,-5.61164 -6.63855,-19.36679 -16.1697,-16.88437 m -85.33818,32.95516 c -6.44654,1.83854 -16.48097,14.48921 -9.94715,21.02787 3.06327,3.06522 11.04291,1.94231 14.79564,0.94837 18.12072,-4.8 14.68412,-27.54812 -4.84849,-21.97624 m -131.878775,12.05042 21.023995,26.21964 1.27903,38.75005 C 98.159695,391.12309 80.481155,371.4043 68.016085,354.19509 l -5.81818,2.90909 c 4.14798,15.99224 25.22637,32.12897 37.818175,41.80655 4.84752,3.7246 13.47782,7.10885 16.4577,12.58666 2.57357,4.73115 0.99685,13.07055 0.99685,18.33406 h 128.96969 c 18.27394,0 42.62594,4.2017 60.12121,-0.96969 -3.15345,-19.552 8.58667,-23.23879 22.30303,-34.38546 12.064,-9.80363 26.816,-22.74327 32.9697,-37.37212 l -6.78788,-2.90909 c -11.74109,18.62109 -30.47564,34.29527 -48.48485,46.54545 l -0.063,-26.18181 0.42861,-12.19491 21.93745,-26.59297 -7.75757,-2.90909 c -4.20267,6.60848 -13.64849,19.72363 -21.34788,21.88218 -16.52655,4.63418 -40.00097,0.42085 -57.19758,0.42085 -38.21769,0 -77.25963,2.34182 -115.39393,-0.0427 -12.65746,-0.79127 -20.15709,-26.42715 -31.999995,-19.35127 m 204.606045,25.21212 v 62.0606 c -14.31078,2.58522 -30.10909,1.02788 -44.60606,0.83491 -23.55975,-0.31321 -47.21648,-0.28121 -70.78787,-0.28121 -13.27031,0 -26.47467,-0.70788 -39.75758,-0.54982 -5.78036,0.0688 -12.59345,2.3457 -18.28073,0.65746 -4.66618,-1.38473 -3.0526,-9.55346 -3.0526,-13.2674 V 374.5587 c 0,-3.21552 -1.31006,-10.30982 1.55442,-12.57891 2.85091,-2.25843 9.56703,-0.99685 12.99103,-0.99685 h 32.9697 128.96969 m -92.15902,2.62206 c -5.35855,1.26836 -14.432,7.16606 -18.07322,11.27273 -2.20509,2.48533 -2.21091,6.38254 1.6834,7.02836 7.14376,1.18594 11.69745,-9.00945 18.36703,-7.96412 5.95297,0.93382 10.78497,9.376 17.31103,8.01261 3.82933,-0.79903 2.67733,-5.03758 0.80388,-7.19225 -3.27273,-3.76533 -14.91491,-12.384 -20.09212,-11.15733 m -74.62885,2.22642 c 4.13963,17.81819 32.72824,-0.36363 33.93939,15.51516 h -33.93939 c 0.009,11.15636 5.97624,9.696 15.51515,9.69697 v 5.81818 c -7.50642,0 -13.46715,-1.36921 -13.57576,7.75757 h 30.06061 c 1.38473,10.72194 4.05139,13.47976 14.54545,15.51515 -1.19563,-5.79394 -1.71151,-17.26254 -5.75806,-21.7183 -4.0417,-4.44994 -10.39321,0.79806 -11.69648,-7.3726 l 18.42424,-0.9697 -2.90909,-24.24243 h -44.60606 m 114.42424,23.27273 h -9.69697 v 7.75758 h 11.63636 l -8.72727,23.27272 c 7.1457,-0.736 11.74691,-4.78739 15.51515,-10.66666 l 0.9697,10.66666 h 29.09091 v -8.72727 c -8.63709,0 -18.29237,2.46885 -18.42425,-8.72727 -8.3966,-0.65067 -4.53915,-5.74158 1.9394,-5.81818 v -7.75758 h -9.69697 c 1.95588,-2.44945 4.0863,-4.69721 5.03757,-7.76145 6.17116,-19.87394 -28.86787,-20.15709 -22.68121,0.004 0.95612,3.11563 2.91588,5.37697 5.03758,7.75757 m 27.15151,-22.30303 v 12.60606 l -6.78788,0.9697 c 0.43637,4.79515 1.55734,7.66448 6.78788,6.78788 0,4.54012 -1.44872,12.04945 0.58473,16.17648 1.28776,2.61237 5.30036,2.61237 6.58812,0 4.2017,-8.52654 0.58473,-27.00994 0.58473,-36.54012 h -7.75758 m -21.31878,6.71127 c 4.59151,-0.63612 5.39248,6.88097 0.86787,7.70134 -5.20436,0.94448 -5.66593,-7.03612 -0.86787,-7.70134 m -50.43879,17.53116 v 2.90909 c -6.93624,0 -15.22036,-2.18473 -15.51515,6.78787 l 32,0.9697 v 1.9394 c -7.44146,0 -19.19031,-2.24194 -26.07612,0.71951 -4.10958,1.76776 -5.52049,8.8863 -2.29528,12.13673 2.57261,2.59297 8.48679,2.56097 11.88655,2.64436 9.40412,0.23079 18.71224,0.98424 28.12121,0.98424 v -5.81818 L 202.80399,412.377 v -0.9697 c 7.60727,-0.4897 19.104,2.49891 25.96073,-1.39054 4.48387,-2.54352 4.40339,-11.96897 0,-14.53867 -4.08631,-2.38449 -9.8017,-1.41867 -14.32437,-2.49503 v -0.9697 l 15.51515,-0.96969 v -6.78788 c -11.96994,0.27248 -28.1823,-3.10109 -39.61309,0.30836 -2.82763,0.84364 -3.51903,4.45479 -0.69333,5.89479 3.39879,1.73091 9.41285,0.58473 13.15491,0.58473 m -47.51515,48.48484 c 2.26909,5.88218 4.928,11.99515 4.79612,18.42425 -0.0921,4.46739 -3.03612,9.20824 -2.12655,13.57575 0.59249,2.84412 3.53164,8.52655 6.96437,8.52655 4.5566,0 5.89769,-9.14521 6.21091,-12.40534 0.92994,-9.7086 -2.94012,-29.54375 -15.84485,-28.12121 m 110.54545,0 c 2.22933,5.7794 4.99879,12.08534 4.64485,18.42425 -0.24824,4.44412 -2.91976,9.15103 -1.99661,13.57575 0.6177,2.95661 3.37455,8.52655 6.96146,8.52655 4.46157,0 5.58351,-8.25503 5.81818,-11.43564 0.68945,-9.36436 -1.87636,-31.296 -15.42788,-29.09091 m -116.36363,0 c -6.2274,10.9314 -14.49212,21.54473 -9.36728,34.90909 4.55467,11.87685 17.95782,17.47685 15.97188,32 -1.47006,10.74909 -12.82424,11.75564 -18.71224,18.67927 -4.6623,5.48267 -2.40679,15.34449 0.47127,21.07831 h 0.9697 c -4.10376,-22.11879 22.74133,-19.63055 28.01939,-37.81818 5.58255,-19.23782 -12.16387,-28.07952 -16.73794,-44.60606 -2.40581,-8.69528 4.12897,-16.01746 1.32461,-24.24243 h -1.93939 m 110.54545,0 c -6.79952,10.41067 -14.76073,21.96073 -9.47879,34.90909 4.71273,11.55297 18.22836,17.80849 16.05818,32 -1.70182,11.13018 -13.56024,11.40655 -19.17672,18.80243 -3.99516,5.26157 -1.80655,14.31369 -0.009,19.98545 h 0.9697 c 0.0136,-21.14133 21.74545,-17.87539 28.25309,-34.90909 7.54521,-19.75176 -11.30667,-29.62812 -16.05043,-46.54545 -2.46497,-8.79031 4.20655,-15.93212 1.37309,-24.24243 h -1.93939 M 144.6219,488.98306 c -3.01479,8.27248 -2.3903,16.55078 1.9394,24.24242 9.33915,-4.60703 6.39224,-19.97188 -1.9394,-24.24242 m 110.54545,0 c -3.01478,8.27248 -2.3903,16.55078 1.9394,24.24242 9.27806,-4.57697 6.29721,-19.93697 -1.9394,-24.24242 m -89.21212,52.36363 c 1.74352,-4.15612 1.92388,-12.41794 -1.05696,-16.15903 -1.81916,-2.28266 -5.91807,-1.61066 -6.12267,1.632 -0.25988,4.10861 5.74545,10.39128 7.17963,14.52703 m 101.81818,-15.51515 8.72728,16.48485 c 2.91297,-6.94109 1.54763,-22.624 -8.72728,-16.48485 z"
       id="path22" />
  </g>
</svg>
